<svg width="48" height="48" viewBox="0 0 48 48" fill="none" xmlns="http://www.w3.org/2000/svg">
<path d="M28.0857 23.9997L23.9997 28.0857L19.9137 23.9997L23.9997 19.9137L28.0857 23.9997ZM26.7147 17.1147C25.2147 15.6147 22.7847 15.6147 21.2847 17.1147L17.1147 21.2847C15.6147 22.7847 15.6147 25.2147 17.1147 26.7147L21.2847 30.8847C22.7847 32.3847 25.2147 32.3847 26.7147 30.8847L30.8847 26.7147C32.3847 25.2147 32.3847 22.7847 30.8847 21.2847L26.7147 17.1147ZM32.6997 34.7997C32.6997 34.2428 32.921 33.7086 33.3148 33.3148C33.7086 32.921 34.2428 32.6997 34.7997 32.6997H43.7997C44.3567 32.6997 44.8908 32.921 45.2847 33.3148C45.6785 33.7086 45.8997 34.2428 45.8997 34.7997C45.8997 35.3567 45.6785 35.8908 45.2847 36.2847C44.8908 36.6785 44.3567 36.8997 43.7997 36.8997H34.7997C34.2428 36.8997 33.7086 36.6785 33.3148 36.2847C32.921 35.8908 32.6997 35.3567 32.6997 34.7997ZM45.8997 43.1997C45.8997 43.7567 45.6785 44.2908 45.2847 44.6847C44.8908 45.0785 44.3567 45.2997 43.7997 45.2997H29.9997C29.4428 45.2997 28.9086 45.0785 28.5148 44.6847C28.121 44.2908 27.8997 43.7567 27.8997 43.1997C27.8997 42.6428 28.121 42.1086 28.5148 41.7148C28.9086 41.321 29.4428 41.0997 29.9997 41.0997H43.7997C44.3567 41.0997 44.8908 41.321 45.2847 41.7148C45.6785 42.1086 45.8997 42.6428 45.8997 43.1997Z" fill="white"/>
<path d="M24.0004 6.60019C19.7321 6.59495 15.6107 8.15878 12.4203 10.9942C9.22986 13.8296 7.19292 17.7389 6.69693 21.9783C6.20095 26.2177 7.28052 30.4915 9.73029 33.9868C12.1801 37.4821 15.8291 39.955 19.9834 40.9352C20.2577 40.9927 20.5177 41.1045 20.7481 41.2641C20.9786 41.4237 21.1747 41.6278 21.325 41.8644C21.4753 42.101 21.5767 42.3652 21.6233 42.6416C21.6698 42.918 21.6606 43.2009 21.5961 43.4736C21.5316 43.7464 21.4132 44.0035 21.2478 44.2298C21.0824 44.456 20.8734 44.6469 20.6331 44.7911C20.3927 44.9354 20.126 45.03 19.8485 45.0695C19.571 45.109 19.2884 45.0926 19.0174 45.0212C15.0688 44.085 11.4638 42.0555 8.61547 39.1651C5.7671 36.2747 3.79056 32.6404 2.91231 28.6785C2.03407 24.7167 2.28964 20.5875 3.64976 16.7642C5.00987 12.9409 7.4195 9.5781 10.6026 7.06103C13.7856 4.54396 17.6134 2.97447 21.6473 2.53238C25.6811 2.09029 29.758 2.79349 33.4106 4.56141C37.0633 6.32933 40.1441 9.09045 42.3 12.5284C44.4559 15.9664 45.5997 19.9422 45.6004 24.0002C45.6111 24.2824 45.5647 24.5639 45.464 24.8279C45.3634 25.0918 45.2105 25.3327 45.0146 25.5361C44.8187 25.7396 44.5837 25.9015 44.3238 26.012C44.0639 26.1226 43.7843 26.1795 43.5019 26.1795C43.2194 26.1795 42.9399 26.1226 42.68 26.012C42.42 25.9015 42.1851 25.7396 41.9892 25.5361C41.7933 25.3327 41.6404 25.0918 41.5397 24.8279C41.4391 24.5639 41.3927 24.2824 41.4034 24.0002C41.4034 21.7149 40.9532 19.4521 40.0786 17.3408C39.204 15.2295 37.922 13.3112 36.306 11.6955C34.6899 10.0797 32.7714 8.79808 30.66 7.92382C28.5486 7.04957 26.2856 6.59979 24.0004 6.60019Z" fill="white"/>
</svg>
