<svg width="48" height="48" viewBox="0 0 48 48" fill="none" xmlns="http://www.w3.org/2000/svg">
<path d="M36.8788 3.75C39.3836 3.75002 41.7903 4.72415 43.59 6.46643C45.3896 8.20872 46.4412 10.5826 46.5224 13.0861L46.5275 13.3988V33.9828C46.5275 36.4876 45.5534 38.8943 43.8111 40.694C42.0688 42.4936 39.6949 43.5452 37.1914 43.6264L36.8788 43.6315H11.1488C8.64389 43.6315 6.23721 42.6574 4.43754 40.9151C2.63788 39.1728 1.5863 36.7989 1.50515 34.2954L1.5 33.9828V13.3988C1.50002 10.8939 2.47415 8.48721 4.21644 6.68754C5.95872 4.88788 8.33258 3.8363 10.8361 3.75515L11.1488 3.75H36.8788ZM36.8788 7.6095H11.1488C9.66057 7.6095 8.22954 8.1826 7.15273 9.20982C6.07592 10.237 5.43604 11.6395 5.36593 13.126L5.3595 13.3988V33.9828C5.3595 35.4709 5.9326 36.902 6.95982 37.9788C7.98704 39.0556 9.38948 39.6955 10.876 39.7656L11.1488 39.772H36.8788C38.3669 39.772 39.798 39.1989 40.8748 38.1717C41.9516 37.1445 42.5915 35.742 42.6616 34.2555L42.668 33.9828V30.6636H36.7758C34.975 30.6637 33.2439 29.9671 31.9452 28.7196C30.6464 27.4722 29.8806 25.7706 29.8082 23.9712L29.803 23.6908C29.8029 21.8899 30.4995 20.1589 31.747 18.8601C32.9944 17.5613 34.696 16.7955 36.4954 16.7231L36.7758 16.7179L42.668 16.7166V13.3988C42.668 11.9106 42.0949 10.4795 41.0677 9.40273C40.0405 8.32592 38.638 7.68604 37.1515 7.61593L36.8788 7.6095ZM42.668 20.5774H36.7758C36.0218 20.5773 35.2933 20.8508 34.7257 21.3472C34.158 21.8436 33.7899 22.5291 33.6895 23.2765L33.6689 23.4862L33.6625 23.6908C33.6624 24.4809 33.9627 25.2415 34.5026 25.8184C35.0425 26.3954 35.7816 26.7454 36.57 26.7976L36.7758 26.8041H42.668V20.5774ZM18.8678 12.1123C19.3633 12.1125 19.8398 12.3034 20.1985 12.6454C20.5572 12.9874 20.7705 13.4543 20.7943 13.9493C20.8181 14.4443 20.6506 14.9295 20.3264 15.3043C20.0022 15.6792 19.5463 15.9149 19.053 15.9627L18.8678 15.9718H11.1488C10.6532 15.9715 10.1767 15.7806 9.81801 15.4386C9.45935 15.0966 9.246 14.6297 9.22219 14.1347C9.19837 13.6397 9.36591 13.1545 9.69009 12.7797C10.0143 12.4048 10.4702 12.1691 10.9635 12.1213L11.1488 12.1123H18.8678Z" fill="white"/>
</svg>
