<svg width="48" height="48" viewBox="0 0 48 48" fill="none" xmlns="http://www.w3.org/2000/svg">
<path d="M41.3663 44.4765C40.8571 44.4765 40.3687 44.2743 40.0086 43.9142C39.6486 43.5541 39.4463 43.0658 39.4463 42.5565L39.6383 22.9725C39.6383 22.4633 39.8406 21.975 40.2006 21.6149C40.5607 21.2548 41.0491 21.0525 41.5583 21.0525C42.0675 21.0525 42.5559 21.2548 42.9159 21.6149C43.276 21.975 43.4783 22.4633 43.4783 22.9725L43.2863 42.5469C43.2875 42.7999 43.2388 43.0506 43.1429 43.2846C43.047 43.5187 42.9057 43.7315 42.7273 43.9108C42.5489 44.0901 42.3368 44.2324 42.1033 44.3295C41.8697 44.4266 41.6192 44.4765 41.3663 44.4765ZM7.80467 44.4285C7.55253 44.4285 7.30287 44.3789 7.06992 44.2824C6.83698 44.1859 6.62532 44.0445 6.44703 43.8662C6.26874 43.6879 6.12731 43.4762 6.03082 43.2433C5.93434 43.0104 5.88467 42.7607 5.88467 42.5085L6.09587 33.3693C6.09587 32.8601 6.29816 32.3718 6.65823 32.0117C7.0183 31.6516 7.50666 31.4493 8.01587 31.4493H8.06387C8.31604 31.4556 8.5645 31.5114 8.79507 31.6137C9.02564 31.716 9.23379 31.8627 9.40764 32.0455C9.58149 32.2282 9.71762 32.4435 9.80825 32.6789C9.89889 32.9142 9.94226 33.1652 9.93587 33.4173L9.72467 42.5565C9.71215 43.0574 9.50435 43.5335 9.14563 43.8833C8.7869 44.233 8.30568 44.4287 7.80467 44.4285ZM18.9983 44.4477C18.4891 44.4477 18.0007 44.2455 17.6406 43.8854C17.2806 43.5253 17.0783 43.037 17.0783 42.5277L17.2799 29.4429C17.2875 28.9337 17.4971 28.4484 17.8626 28.0937C18.2281 27.7391 18.7195 27.5441 19.2287 27.5517C19.7379 27.5594 20.2232 27.769 20.5779 28.1345C20.9326 28.4999 21.1275 28.9913 21.1199 29.5005L20.9183 42.5565C20.9107 43.0608 20.7051 43.5417 20.3458 43.8956C19.9866 44.2495 19.5025 44.4478 18.9983 44.4477ZM30.1823 44.4669C29.9301 44.4669 29.6805 44.4173 29.4475 44.3208C29.2146 44.2243 29.0029 44.0829 28.8246 43.9046C28.6463 43.7263 28.5049 43.5146 28.4084 43.2817C28.3119 43.0488 28.2623 42.7991 28.2623 42.5469L28.4543 26.8797C28.4606 26.3705 28.669 25.8847 29.0336 25.5291C29.3982 25.1736 29.8891 24.9774 30.3983 24.9837C30.9075 24.9901 31.3933 25.1985 31.7489 25.5631C32.1045 25.9276 32.3006 26.4185 32.2943 26.9277L32.1023 42.5949C32.0898 43.0958 31.8819 43.5719 31.5232 43.9217C31.1645 44.2714 30.6833 44.4671 30.1823 44.4669ZM6.51827 28.3485C6.01801 28.3618 5.53232 28.1793 5.16467 27.8397C4.98616 27.6614 4.84454 27.4497 4.74792 27.2166C4.6513 26.9835 4.60156 26.7337 4.60156 26.4813C4.60156 26.229 4.6513 25.9792 4.74792 25.7461C4.84454 25.513 4.98616 25.3013 5.16467 25.1229L17.7503 12.4797C18.1087 12.1192 18.5955 11.9155 19.1039 11.9133C19.3572 11.9131 19.6081 11.9631 19.8421 12.0603C20.076 12.1575 20.2885 12.3001 20.4671 12.4797L26.0927 18.1149L36.8447 7.36295H33.0911C32.5819 7.36295 32.0935 7.16066 31.7334 6.80059C31.3734 6.44052 31.1711 5.95216 31.1711 5.44295C31.1711 4.93373 31.3734 4.44537 31.7334 4.0853C32.0935 3.72523 32.5819 3.52295 33.0911 3.52295H41.4815C41.8605 3.52484 42.2305 3.63889 42.5449 3.85073C42.8592 4.06257 43.1038 4.36272 43.2479 4.71335C43.3937 5.06391 43.4323 5.44984 43.3589 5.82235C43.2854 6.19486 43.1031 6.53722 42.8351 6.80615L27.4751 22.1661C27.2965 22.3458 27.084 22.4884 26.8501 22.5856C26.6161 22.6828 26.3652 22.7327 26.1119 22.7325C25.6035 22.7304 25.1167 22.5267 24.7583 22.1661L19.1039 16.5597L7.88147 27.8397C7.51143 28.1816 7.02183 28.3644 6.51827 28.3485Z" fill="white"/>
</svg>
